<svg id="Слой_1" data-name="Слой 1" xmlns="http://www.w3.org/2000/svg" xmlns:xlink="http://www.w3.org/1999/xlink" viewBox="0 0 1200 707.68"><defs><style>.cls-1{fill:#ffeee4;}.cls-2{font-size:47.02px;fill:#203b7a;font-family:MyriadPro-Regular, Myriad Pro;}.cls-3{letter-spacing:-0.01em;}.cls-4{letter-spacing:0em;}.cls-5{letter-spacing:0em;}.cls-6{letter-spacing:-0.01em;}.cls-7{letter-spacing:0em;}.cls-8{letter-spacing:-0.01em;}.cls-9{letter-spacing:0.02em;}.cls-10{letter-spacing:-0.01em;}.cls-11{letter-spacing:0em;}.cls-12{fill:#fece6b;}</style><image id="image" width="1500" height="1500" xlink:href="../59CCCE4C-2CA7-4277-A7DF-A7556686F8C8.png"/></defs><title>banner1_bezlogo</title><use transform="scale(0.4)" xlink:href="#image"/><use transform="translate(600.63) scale(0.4)" xlink:href="#image"/><path class="cls-1" d="M1006.08,477.38C678.74,684.54,600.71,693.17,236,562.55,58,498.8,34.67,287.81,194.44,186.7,521.78-20.45,584.3,27.33,964.51,101.53,1171.14,141.86,1165.85,376.28,1006.08,477.38Z" transform="translate(0 1.16)"/><image width="1234" height="1312" transform="translate(737.02 159.54) scale(0.34)" xlink:href="../ville2.png"/><text class="cls-2" transform="translate(157.04 647.48) scale(1.05 1)"><tspan xml:space="preserve">обо мне   о</tspan><tspan class="cls-3" x="221.4" y="0">б</tspan><tspan x="245.75" y="0" xml:space="preserve">учение    уч</tspan><tspan class="cls-4" x="477.17" y="0">е</tspan><tspan class="cls-5" x="500.96" y="0" xml:space="preserve">бники   </tspan><tspan class="cls-6" x="655.97" y="0">к</tspan><tspan x="678.21" y="0">о</tspan><tspan class="cls-7" x="704.02" y="0">н</tspan><tspan class="cls-8" x="729.55" y="0">т</tspan><tspan class="cls-5" x="748.22" y="0">а</tspan><tspan class="cls-9" x="770.88" y="0">к</tspan><tspan class="cls-10" x="794.2" y="0">т</tspan><tspan class="cls-11" x="813.19" y="0">ы</tspan></text><path class="cls-12" d="M1200,666.2a58,58,0,0,1-3.86-10.56c-5.2-20.09-.85-22.08-.85-42.83,0-6.52,2.19-11.75,4.71-16.29V568.37c-14.73-11.66-22,4.38-43.24,4.38-22.25,0-22.25,2.88-44.5,2.88S1090,578,1067.77,578s-22.25,4-44.5,4-22.24-21.08-44.49-21.08-22.24,10-44.49,10S912,581.88,889.8,581.88s-22.25-11.25-44.49-11.25-22.25,2.53-44.5,2.53-22.24,9.74-44.49,9.74-22.24-11.16-44.49-11.16S689.59,567,667.35,567s-22.25-6.13-44.49-6.13S600.61,582,578.37,582s-22.25.4-44.49.4-22.25.55-44.49.55-22.25-21.32-44.49-21.32-22.25,10.61-44.49,10.61-22.25,7.55-44.49,7.55-22.25-3.09-44.49-3.09-22.25-4.19-44.49-4.19-22.25.91-44.49.91-22.25,7.15-44.49,7.15S155.71,571,133.47,571s-22.25-.58-44.49-.58-22.25-10.65-44.49-10.65S22.11,562.4,5.84,577.57c-2.37,2.22-4.29,4.09-5.84,5.76v51a37.89,37.89,0,0,1,5.05,19.95c0,7-2.41,12.46-5,17.26v26.84c15.36,13.43,22.86,3.73,44.5,3.73,22.24,0,22.24-6.58,44.49-6.58s22.25-7.47,44.5-7.47,22.24,17.75,44.49,17.75,22.24-5.51,44.49-5.51,22.24-16.22,44.49-16.22,22.25,6.37,44.49,6.37,22.25,5.73,44.49,5.73,22.25.42,44.5.42,22.24,3.14,44.49,3.14,22.24-8.29,44.49-8.29,22.24,2.78,44.49,2.78,22.24-1,44.48-1,22.25-6.49,44.49-6.49,22.25,15.6,44.49,15.6,22.25-12.42,44.5-12.42,22.24,11,44.49,11,22.24,4.33,44.49,4.33,22.24-5.91,44.49-5.91,22.24,6.86,44.49,6.86,22.24-11.1,44.48-11.1,22.25,11,44.5,11,22.24-15.74,44.48-15.74,22.25,8.59,44.5,8.59,22.24-13,44.48-13,22.25,14,44.49,14c19.92,0,29.73,12,43.24,3.66Z" transform="translate(0 1.16)"/></svg>