<svg id="Слой_1" data-name="Слой 1" xmlns="http://www.w3.org/2000/svg" xmlns:xlink="http://www.w3.org/1999/xlink" viewBox="0 0 1200 707.68"><defs><style>.cls-1{fill:#ffeee4;}.cls-2{fill:#9ec6e7;}.cls-3{font-size:47.02px;fill:#203b7a;font-family:MyriadPro-Regular, Myriad Pro;}.cls-4{letter-spacing:-0.01em;}.cls-5{letter-spacing:0em;}.cls-6{letter-spacing:0em;}.cls-7{letter-spacing:-0.01em;}.cls-8{letter-spacing:0em;}.cls-9{letter-spacing:-0.01em;}.cls-10{letter-spacing:0.02em;}.cls-11{letter-spacing:-0.01em;}.cls-12{letter-spacing:0em;}.cls-13{fill:#fff;}.cls-14{fill:#fece6b;}</style><image id="image" width="1500" height="1500" xlink:href="../59CCCE4C-2CA7-4277-A7DF-A7556686F8C8.png"/></defs><title>banner1</title><use transform="scale(0.4)" xlink:href="#image"/><use transform="translate(600.63) scale(0.4)" xlink:href="#image"/><path class="cls-1" d="M1006.08,477.38C678.74,684.54,600.71,693.17,236,562.55,58,498.8,34.67,287.81,194.44,186.7,521.78-20.45,584.3,27.33,964.51,101.53,1171.14,141.86,1165.85,376.28,1006.08,477.38Z" transform="translate(0 1.16)"/><path class="cls-2" d="M148.59,53.76C124,44.15,76.55,37.67,47,55.21S26.48,99.79,29.8,104.31C42.06,121,72.09,135.71,129,128S185.12,68,148.59,53.76Z" transform="translate(0 1.16)"/><image width="1234" height="1312" transform="translate(737.02 159.54) scale(0.34)" xlink:href="../ville2.png"/><text class="cls-3" transform="translate(157.04 647.48) scale(1.05 1)"><tspan xml:space="preserve">обо мне   о</tspan><tspan class="cls-4" x="221.4" y="0">б</tspan><tspan x="245.75" y="0" xml:space="preserve">учение    уч</tspan><tspan class="cls-5" x="477.17" y="0">е</tspan><tspan class="cls-6" x="500.96" y="0" xml:space="preserve">бники   </tspan><tspan class="cls-7" x="655.97" y="0">к</tspan><tspan x="678.21" y="0">о</tspan><tspan class="cls-8" x="704.02" y="0">н</tspan><tspan class="cls-9" x="729.55" y="0">т</tspan><tspan class="cls-6" x="748.22" y="0">а</tspan><tspan class="cls-10" x="770.88" y="0">к</tspan><tspan class="cls-11" x="794.2" y="0">т</tspan><tspan class="cls-12" x="813.19" y="0">ы</tspan></text><path class="cls-13" d="M59.38,77.43c2.55-1.11,6.14-1.8,7.92,1a12,12,0,0,1,1.25,8.38,12.9,12.9,0,0,1-4.28,7c-1.62,1.43-4.25,3-6.54,2.18-3-1.17-3.54-5.08-3.56-7.93V87.8C54.17,84.11,55.18,79,59.38,77.43Zm-3.46,7.4a14.34,14.34,0,0,0,.32,6.7,3.48,3.48,0,0,0,2,2.47c2.26.69,4.6-1.09,6.09-2.63a10,10,0,0,0,2.79-7.79c-.08-1.55-.4-3.57-1.78-4.5-1.7-1.14-3.83-.5-5.56.24A6.68,6.68,0,0,0,55.92,84.83Z" transform="translate(0 1.16)"/><path class="cls-13" d="M81,88.68a10,10,0,0,1-3.21,5.9,6.4,6.4,0,0,1-6.55.88c-.42,2-.87,4-1.4,6-.35,1.25-1.79-.06-1.49-1,1.57-5.85,2.5-11.89,3.8-17.82a.64.64,0,0,1,1-.34,1.29,1.29,0,0,1,.5,1.38,4.84,4.84,0,0,1-.16.56,10.86,10.86,0,0,1,1.09-.83c1.57-1.06,3.94-2,5.43-.32C81.34,84.51,81.31,86.87,81,88.68Zm-2.66-4.47c-1.88-.66-4.12,1.52-5.39,2.85-.46,2.13-.83,4.25-1.28,6.38,2,.8,4.09.77,5.69-.8a7.78,7.78,0,0,0,2.21-4.78C79.66,86.53,79.53,84.64,78.33,84.21Z" transform="translate(0 1.16)"/><path class="cls-13" d="M86.87,82.91c-.91,4.23-1.7,8.48-2.66,12.74-.21,1-2.21.4-1.94-.61.9-4.23,1.73-8.49,2.6-12.71C85.09,81.32,87.08,81.9,86.87,82.91Zm1.62-4.52a1.18,1.18,0,0,1-.51.91,2.19,2.19,0,0,1-2.1-.14,1.53,1.53,0,0,1-.55-1.75,1.45,1.45,0,0,1,.45-.56,3.59,3.59,0,0,1,.72-.32c.34-.08,1.19-.08,1.46.29A2.41,2.41,0,0,1,88.49,78.39Z" transform="translate(0 1.16)"/><path class="cls-13" d="M98.94,79.22c-2-1.2-5.45-.54-7.15.85-2.77,2.28,2.55,5.08,3.85,6.43,1.89,2,3.22,5.11,1.3,7.5-2.34,2.9-6.78,2.47-10,1.73-1-.24-.4-2.16.53-1.94A13.06,13.06,0,0,0,94,94c.9-.26,2.07-.88,2.18-2,.35-3.64-4.23-5.21-6-7.68C86.36,79,95.83,75,99.87,77.38,100.72,77.91,99.82,79.72,98.94,79.22Z" transform="translate(0 1.16)"/><path class="cls-13" d="M111,83.2c-.45,2.1-.85,4.2-1.19,6.33-.11.69-.24,1.38-.35,2.1a.47.47,0,0,1-.08.72s0,.08,0,.08a17.21,17.21,0,0,0-.19,2.37c0,1.27-1.57,1.19-1.57-.08a7,7,0,0,0,0-.8c-2,1.57-4.71,3-6.65,1.65-1.65-1.2-1.25-3.88-1-5.59.35-2.47,1-4.91,1.57-7.39.21-1,2.18-.32,1.94.69-.42,1.94-1,3.91-1.33,5.91a17.76,17.76,0,0,0-.32,3,4.18,4.18,0,0,0,.24,2.2c.4.59,2.21-.53,2.63-.77a16.68,16.68,0,0,0,3-2.26.59.59,0,0,1,.29-.18c.13-.72.27-1.49.37-2.24.38-2.1.75-4.22,1.23-6.3C109.84,81.26,111.22,82.06,111,83.2Z" transform="translate(0 1.16)"/><path class="cls-13" d="M123.82,89.21a8.43,8.43,0,0,1-1.54,4,7.84,7.84,0,0,1-4.23,2.88c-7.09.77-6.59-10-2-12.74a5.82,5.82,0,0,1,4.81-1.12C123.69,83,124.17,86.69,123.82,89.21Zm-2-2.66a3.79,3.79,0,0,0-1.27-2.79c-1.12-.72-3.3,1-4,1.65a7,7,0,0,0-1.78,6.49,3.78,3.78,0,0,0,1.52,2.47c.88.51,2-.11,2.68-.66A7.62,7.62,0,0,0,121.8,86.55Z" transform="translate(0 1.16)"/><path class="cls-13" d="M143.79,90.14a46.27,46.27,0,0,1-1.52,5.11c-.31.93-2.33.69-2-.32,1-2.9,2.1-6.12,2.1-9.2a4,4,0,0,0-.29-1.73,1,1,0,0,0-.24-.37c-.11-.08-.11-.08-.21-.08-1.6.08-3.49,1.75-4.87,3-.11,3-1.12,6-1.78,8.91-.21.93-2.23.69-2-.4a47.76,47.76,0,0,0,1.64-8,.59.59,0,0,1,0-1l.05,0V86a5,5,0,0,0-.31-2c-.08-.16-.24-.43-.24-.43-.22-.13,0,0-.22-.11.22.08-.1.06-.08,0a5.19,5.19,0,0,0-1.91.85,24,24,0,0,0-2.87,2.26c-.56,2.9-1,5.83-1.68,8.72-.32,1.31-1.83.43-1.57-.61.56-2.39,1-4.81,1.41-7.2-.58-.16-1-.72-.4-1.25.24-.24.51-.48.78-.72.21-1,.39-1.94.61-2.9a.71.71,0,0,1,1.06-.32,1.3,1.3,0,0,1,.43,1.39v.1a13.47,13.47,0,0,1,1.27-.87,5.64,5.64,0,0,1,2.93-1,2.75,2.75,0,0,1,2.71,2.44A8.6,8.6,0,0,1,141.48,82a2.72,2.72,0,0,1,2.9,2.61A16.32,16.32,0,0,1,143.79,90.14Z" transform="translate(0 1.16)"/><path class="cls-13" d="M150.41,82.91c-.9,4.23-1.7,8.48-2.66,12.74-.21,1-2.21.4-1.94-.61.9-4.23,1.73-8.49,2.61-12.71C148.63,81.32,150.62,81.9,150.41,82.91ZM152,78.39a1.19,1.19,0,0,1-.5.91,2.18,2.18,0,0,1-2.1-.14,1.52,1.52,0,0,1-.56-1.75,1.45,1.45,0,0,1,.45-.56,3.59,3.59,0,0,1,.72-.32c.34-.08,1.19-.08,1.46.29A2.35,2.35,0,0,1,152,78.39Z" transform="translate(0 1.16)"/><path class="cls-14" d="M1200,666.2a58,58,0,0,1-3.86-10.56c-5.2-20.09-.85-22.08-.85-42.83,0-6.52,2.19-11.75,4.71-16.29V568.37c-14.73-11.66-22,4.38-43.24,4.38-22.25,0-22.25,2.88-44.5,2.88S1090,578,1067.77,578s-22.25,4-44.5,4-22.24-21.08-44.49-21.08-22.24,10-44.49,10S912,581.88,889.8,581.88s-22.25-11.25-44.49-11.25-22.25,2.53-44.5,2.53-22.24,9.74-44.49,9.74-22.24-11.16-44.49-11.16S689.59,567,667.35,567s-22.25-6.13-44.49-6.13S600.61,582,578.37,582s-22.25.4-44.49.4-22.25.55-44.49.55-22.25-21.32-44.49-21.32-22.25,10.61-44.49,10.61-22.25,7.55-44.49,7.55-22.25-3.09-44.49-3.09-22.25-4.19-44.49-4.19-22.25.91-44.49.91-22.25,7.15-44.49,7.15S155.71,571,133.47,571s-22.25-.58-44.49-.58-22.25-10.65-44.49-10.65S22.11,562.4,5.84,577.57c-2.37,2.22-4.29,4.09-5.84,5.76v51a37.89,37.89,0,0,1,5.05,19.95c0,7-2.41,12.46-5,17.26v26.84c15.36,13.43,22.86,3.73,44.5,3.73,22.24,0,22.24-6.58,44.49-6.58s22.25-7.47,44.5-7.47,22.24,17.75,44.49,17.75,22.24-5.51,44.49-5.51,22.24-16.22,44.49-16.22,22.25,6.37,44.49,6.37,22.25,5.73,44.49,5.73,22.25.42,44.5.42,22.24,3.14,44.49,3.14,22.24-8.29,44.49-8.29,22.24,2.78,44.49,2.78,22.24-1,44.48-1,22.25-6.49,44.49-6.49,22.25,15.6,44.49,15.6,22.25-12.42,44.5-12.42,22.24,11,44.49,11,22.24,4.33,44.49,4.33,22.24-5.91,44.49-5.91,22.24,6.86,44.49,6.86,22.24-11.1,44.48-11.1,22.25,11,44.5,11,22.24-15.74,44.48-15.74,22.25,8.59,44.5,8.59,22.24-13,44.48-13,22.25,14,44.49,14c19.92,0,29.73,12,43.24,3.66Z" transform="translate(0 1.16)"/></svg>