<svg id="Слой_1" data-name="Слой 1" xmlns="http://www.w3.org/2000/svg" viewBox="0 0 1200.42 240.63"><defs><style>.cls-1{fill:#fece6b;}</style></defs><title>footer</title><path class="cls-1" d="M1200,164V21.49c-8.83.56-17,8.7-32.31,8.7-22.72,0-22.72,2.94-45.44,2.94s-22.71,2.42-45.43,2.42-22.72,4.1-45.44,4.1S1008.67,18.12,986,18.12s-22.71,10.24-45.43,10.24S917.8,39.52,895.08,39.52,872.37,28,849.65,28s-22.72,2.58-45.43,2.58-22.72,10-45.44,10-22.71-11.4-45.43-11.4-22.71-4.81-45.43-4.81S645.21,18.1,622.5,18.1s-22.72,21.5-45.44,21.5-22.71.41-45.43.41-22.72.56-45.43.56S463.48,18.8,440.77,18.8s-22.72,10.83-45.44,10.83-22.71,7.71-45.43,7.71-22.71-3.16-45.43-3.16S281.76,29.91,259,29.91s-22.72.93-45.43.93-22.72,7.3-45.43,7.3-22.72-9.74-45.43-9.74-22.72-.6-45.44-.6S54.6,16.93,31.88,16.93C13,16.93,9.78,19-.42,28.46V257.55H1200Z" transform="translate(0.42 -16.93)"/></svg>