<svg id="Слой_1" data-name="Слой 1" xmlns="http://www.w3.org/2000/svg" viewBox="0 0 1200 146.76"><defs><style>.cls-1{fill:#fece6b;}</style></defs><title>yellow stripe</title><path class="cls-1" d="M1200,119.2a58,58,0,0,1-3.86-10.56c-5.2-20.09-.85-22.08-.85-42.83,0-6.52,2.19-11.75,4.71-16.29V21.37c-14.73-11.66-22,4.38-43.24,4.38-22.25,0-22.25,2.88-44.5,2.88S1090,31,1067.77,31s-22.25,4-44.5,4S1001,13.93,978.78,13.93s-22.24,10-44.49,10S912,34.88,889.8,34.88s-22.25-11.25-44.49-11.25-22.25,2.53-44.5,2.53-22.24,9.74-44.49,9.74-22.24-11.16-44.49-11.16S689.59,20,667.35,20,645.1,13.9,622.86,13.9,600.61,35,578.37,35s-22.25.4-44.49.4-22.25.55-44.49.55S467.14,14.59,444.9,14.59,422.65,25.2,400.41,25.2s-22.25,7.55-44.49,7.55-22.25-3.09-44.49-3.09-22.25-4.19-44.49-4.19-22.25.91-44.49.91S200.2,33.53,178,33.53,155.71,24,133.47,24s-22.25-.58-44.49-.58S66.73,12.76,44.49,12.76,22.11,15.4,5.84,30.57C3.47,32.79,1.55,34.66,0,36.33v51a37.89,37.89,0,0,1,5.05,20c0,7-2.41,12.46-5,17.26v26.84c15.36,13.43,22.86,3.73,44.5,3.73,22.24,0,22.24-6.58,44.49-6.58s22.25-7.47,44.5-7.47,22.24,17.75,44.49,17.75,22.24-5.51,44.49-5.51,22.24-16.22,44.49-16.22,22.25,6.37,44.49,6.37,22.25,5.73,44.49,5.73,22.25.42,44.5.42,22.24,3.14,44.49,3.14,22.24-8.29,44.49-8.29,22.24,2.78,44.49,2.78,22.24-1,44.48-1,22.25-6.49,44.49-6.49,22.25,15.6,44.49,15.6,22.25-12.42,44.5-12.42,22.24,11,44.49,11,22.24,4.33,44.49,4.33,22.24-5.91,44.49-5.91,22.24,6.86,44.49,6.86,22.24-11.1,44.48-11.1,22.25,11,44.5,11,22.24-15.74,44.48-15.74,22.25,8.59,44.5,8.59,22.24-13,44.48-13,22.25,14,44.49,14c19.92,0,29.73,12,43.24,3.66Z" transform="translate(0 -12.76)"/></svg>