<svg id="Слой_1" data-name="Слой 1" xmlns="http://www.w3.org/2000/svg" viewBox="0 0 48 48"><defs><style>.cls-1{fill:#070b47;}</style></defs><title>discord</title><path class="cls-1" d="M40,47.94H8A7.92,7.92,0,0,1,.06,40V8A7.92,7.92,0,0,1,8,.06H40A7.92,7.92,0,0,1,47.94,8V40A7.92,7.92,0,0,1,40,47.94ZM8,4.23A3.75,3.75,0,0,0,4.23,8V40A3.75,3.75,0,0,0,8,43.77H40A3.75,3.75,0,0,0,43.77,40V8A3.75,3.75,0,0,0,40,4.23Z"/><path class="cls-1" d="M30.93,36.11h-.11l-1.23-1.67A16.18,16.18,0,0,0,33.1,32.7,12.92,12.92,0,0,0,36,30.13a.71.71,0,0,0-.14.1A18.14,18.14,0,0,1,28,33.5a25,25,0,0,1-4.65.3A22.65,22.65,0,0,1,19,33.3a17.75,17.75,0,0,1-6.83-3.07L12,30.16a14.76,14.76,0,0,0,6.39,4.28l-1.26,1.67h-.07l-.19,0A14.79,14.79,0,0,1,12.22,35a12.62,12.62,0,0,1-4.77-3.32.41.41,0,0,1-.09-.26c.12-1.25.21-2.51.38-3.75a39.18,39.18,0,0,1,1.89-7.9,24.73,24.73,0,0,1,2.12-4.62,1.38,1.38,0,0,1,.37-.39,14.38,14.38,0,0,1,2.36-1.4,14.65,14.65,0,0,1,4.84-1.45.25.25,0,0,1,.16,0c.12.21.22.44.34.67A15.47,15.47,0,0,0,16,14a15,15,0,0,0-3.23,2.35,22.63,22.63,0,0,1,22.48,0,14.45,14.45,0,0,0-7.08-3.73c.12-.24.21-.44.32-.63a.27.27,0,0,1,.19-.1,12.9,12.9,0,0,1,3.07.7,16.75,16.75,0,0,1,4.09,2.13,1.45,1.45,0,0,1,.43.46,24.11,24.11,0,0,1,2,4.18,39.16,39.16,0,0,1,1.82,7,45,45,0,0,1,.58,5.06.38.38,0,0,1-.08.25c-.46.45-.9.93-1.4,1.34a14.18,14.18,0,0,1-7,3C31.77,36,31.35,36.06,30.93,36.11Zm.65-10.45A3.45,3.45,0,0,0,31,23.61a2.44,2.44,0,0,0-3.77-.44,3.33,3.33,0,0,0-.1,4.55,2.42,2.42,0,0,0,3.47.14A3.18,3.18,0,0,0,31.58,25.66Zm-15.15,0A3,3,0,0,0,17.56,28a2.4,2.4,0,0,0,2.86.13A3.28,3.28,0,0,0,21,23.39a2.42,2.42,0,0,0-3.75-.06A3.34,3.34,0,0,0,16.43,25.7Z"/></svg>