<svg id="Слой_1" data-name="Слой 1" xmlns="http://www.w3.org/2000/svg" viewBox="0 0 48 48"><defs><style>.cls-1{fill:#070b47;}</style></defs><title>fb</title><path class="cls-1" d="M30.7,24.78H26.26V39.1h-6.6V24.78H16.53v-5.6h3.13V15.56c0-2.6,1.23-6.66,6.66-6.66l4.88,0v5.44H27.66a1.34,1.34,0,0,0-1.4,1.53v3.3h5Zm.77.17"/><path class="cls-1" d="M40,47.94H8A7.92,7.92,0,0,1,.06,40V8A7.92,7.92,0,0,1,8,.06H40A7.92,7.92,0,0,1,47.94,8V40A7.92,7.92,0,0,1,40,47.94ZM8,4.23A3.75,3.75,0,0,0,4.23,8V40A3.75,3.75,0,0,0,8,43.77H40A3.75,3.75,0,0,0,43.77,40V8A3.75,3.75,0,0,0,40,4.23Z"/></svg>