<svg id="Слой_1" data-name="Слой 1" xmlns="http://www.w3.org/2000/svg" viewBox="0 0 48 48"><defs><style>.cls-1{fill:#070b47;}</style></defs><title>insta</title><path class="cls-1" d="M30.65,9.18H17.35a8.17,8.17,0,0,0-8.17,8.17v13.3a8.17,8.17,0,0,0,8.17,8.17h13.3a8.17,8.17,0,0,0,8.17-8.17V17.35A8.17,8.17,0,0,0,30.65,9.18Zm5.78,21.44a5.82,5.82,0,0,1-5.81,5.81H17.38a5.82,5.82,0,0,1-5.81-5.81V17.38a5.82,5.82,0,0,1,5.81-5.81H30.62a5.82,5.82,0,0,1,5.81,5.81Z"/><path class="cls-1" d="M24,16.19A7.81,7.81,0,1,0,31.81,24,7.81,7.81,0,0,0,24,16.19Zm0,12.9A5.09,5.09,0,1,1,29.09,24,5.09,5.09,0,0,1,24,29.09Z"/><path class="cls-1" d="M33.83,15.93a1.76,1.76,0,1,1-1.75-1.75A1.75,1.75,0,0,1,33.83,15.93Z"/><path class="cls-1" d="M40,47.94H8A7.92,7.92,0,0,1,.06,40V8A7.92,7.92,0,0,1,8,.06H40A7.92,7.92,0,0,1,47.94,8V40A7.92,7.92,0,0,1,40,47.94ZM8,4.23A3.75,3.75,0,0,0,4.23,8V40A3.75,3.75,0,0,0,8,43.77H40A3.75,3.75,0,0,0,43.77,40V8A3.75,3.75,0,0,0,40,4.23Z"/></svg>