<svg id="Слой_1" data-name="Слой 1" xmlns="http://www.w3.org/2000/svg" viewBox="0 0 48 48"><defs><style>.cls-1{fill:#070b47;}</style></defs><title>skype</title><path class="cls-1" d="M40,47.94H8A7.92,7.92,0,0,1,.06,40V8A7.92,7.92,0,0,1,8,.06H40A7.92,7.92,0,0,1,47.94,8V40A7.92,7.92,0,0,1,40,47.94ZM8,4.23A3.75,3.75,0,0,0,4.23,8V40A3.75,3.75,0,0,0,8,43.77H40A3.75,3.75,0,0,0,43.77,40V8A3.75,3.75,0,0,0,40,4.23Z"/><path class="cls-1" d="M36.82,25.88A12.6,12.6,0,0,0,37,23.83a13.1,13.1,0,0,0-13.11-13.1,12.57,12.57,0,0,0-2,.16,7.92,7.92,0,0,0-10.9,10.9,12.57,12.57,0,0,0-.16,2,13.11,13.11,0,0,0,13.1,13.11,12.6,12.6,0,0,0,2.05-.16,7.92,7.92,0,0,0,10.9-10.9ZM30.1,29.8a5.46,5.46,0,0,1-2.44,1.87,9.64,9.64,0,0,1-3.78.67,9,9,0,0,1-4.33-.92,5.6,5.6,0,0,1-2-1.77,3.84,3.84,0,0,1-.76-2.17,1.48,1.48,0,0,1,.46-1.08,1.72,1.72,0,0,1,1.2-.44,1.45,1.45,0,0,1,1,.35,2.6,2.6,0,0,1,.68,1,5.93,5.93,0,0,0,.72,1.29,2.86,2.86,0,0,0,1.08.85,4.28,4.28,0,0,0,1.83.33,4.47,4.47,0,0,0,2.55-.67,2,2,0,0,0,1-1.67,1.67,1.67,0,0,0-.51-1.27,3.38,3.38,0,0,0-1.36-.76c-.56-.18-1.32-.37-2.26-.57a17.17,17.17,0,0,1-3.19-1,5.11,5.11,0,0,1-2-1.52,3.75,3.75,0,0,1-.76-2.4,3.88,3.88,0,0,1,.8-2.43,4.93,4.93,0,0,1,2.32-1.63,10.05,10.05,0,0,1,3.55-.57,9.52,9.52,0,0,1,2.83.37,6.35,6.35,0,0,1,2,1A4.19,4.19,0,0,1,29.79,18a2.84,2.84,0,0,1,.37,1.36,1.55,1.55,0,0,1-.47,1.1,1.49,1.49,0,0,1-1.16.49,1.41,1.41,0,0,1-1-.29,4.38,4.38,0,0,1-.71-.95,4.15,4.15,0,0,0-1.13-1.43,3.55,3.55,0,0,0-2.13-.5,3.94,3.94,0,0,0-2.19.55,1.58,1.58,0,0,0-.83,1.31,1.29,1.29,0,0,0,.28.8,2.18,2.18,0,0,0,.77.6,6.05,6.05,0,0,0,1,.4q.53.15,1.71.42,1.48.33,2.7.72a8.28,8.28,0,0,1,2.07.95A4.07,4.07,0,0,1,30.45,25a4.34,4.34,0,0,1,.48,2.12,4.66,4.66,0,0,1-.83,2.7Zm0,0"/></svg>