<svg id="Слой_1" data-name="Слой 1" xmlns="http://www.w3.org/2000/svg" viewBox="0 0 48 48"><defs><style>.cls-1{fill:#070b47;}</style></defs><title>telega</title><path class="cls-1" d="M40,47.94H8A7.92,7.92,0,0,1,.06,40V8A7.92,7.92,0,0,1,8,.06H40A7.92,7.92,0,0,1,47.94,8V40A7.92,7.92,0,0,1,40,47.94ZM8,4.23A3.75,3.75,0,0,0,4.23,8V40A3.75,3.75,0,0,0,8,43.77H40A3.75,3.75,0,0,0,43.77,40V8A3.75,3.75,0,0,0,40,4.23Z"/><path class="cls-1" d="M39.36,12.15v.14s0,0,0,.05q-.53,2.49-1,5c-.27,1.26-.53,2.51-.79,3.77l-1.17,5.54c-.3,1.42-.59,2.85-.89,4.27-.26,1.21-.51,2.42-.76,3.64-.09.41-.17.83-.28,1.24a1.23,1.23,0,0,1-.95,1l-.3.06h-.29l0,0a1.68,1.68,0,0,1-.69-.28l-.49-.37-6.52-4.77c-.07-.06-.12-.05-.19,0-1.28,1.21-2.57,2.4-3.85,3.62a1.15,1.15,0,0,1-1.89-.46c-.23-.76-.5-1.51-.74-2.26-.68-2-1.35-4.08-2-6.12a.17.17,0,0,0-.11-.12l-1.79-.55L9.34,23.88a1,1,0,0,1-.64-.65L8.64,23v-.15l0-.05a1,1,0,0,1,.7-.85L17,19.11l6.26-2.34,5.56-2.07,9.09-3.36.39-.15h.14l0,0a1.08,1.08,0,0,1,.88.92ZM20.22,32.43h0s0-.06,0-.1c.06-.59.11-1.18.17-1.77.07-.8.15-1.6.23-2.41a.32.32,0,0,1,.07-.22l2.25-2,3.87-3.49,4.6-4.17,2.33-2.13a.24.24,0,0,0-.06-.41.32.32,0,0,0-.37,0l-.11.06L28,19.11l-9.79,6.25c-.06,0-.1.08-.07.17q1,3.3,2,6.6C20.15,32.23,20.18,32.33,20.22,32.43Z"/></svg>