<svg id="Слой_1" data-name="Слой 1" xmlns="http://www.w3.org/2000/svg" viewBox="0 0 48 48"><defs><style>.cls-1{fill:#070b47;}</style></defs><title>vk</title><path class="cls-1" d="M40,47.94H8A7.92,7.92,0,0,1,.06,40V8A7.92,7.92,0,0,1,8,.06H40A7.92,7.92,0,0,1,47.94,8V40A7.92,7.92,0,0,1,40,47.94ZM8,4.23A3.75,3.75,0,0,0,4.23,8V40A3.75,3.75,0,0,0,8,43.77H40A3.75,3.75,0,0,0,43.77,40V8A3.75,3.75,0,0,0,40,4.23Z"/><path class="cls-1" d="M26.72,19.15c0,1.16,0,2.32,0,3.48a2.43,2.43,0,0,0,.14.76.44.44,0,0,0,.62.3,2.46,2.46,0,0,0,.71-.39,10.79,10.79,0,0,0,2.1-2.42,29.88,29.88,0,0,0,2.9-5.29,1.65,1.65,0,0,1,1.71-1.12h3.3a2.71,2.71,0,0,1,.56,0,.74.74,0,0,1,.67,1,9.48,9.48,0,0,1-.57,1.57A42.3,42.3,0,0,1,36,21.9l-1.28,1.86c-.53.78-.52,1.12.11,1.83.28.31.57.6.87.89a29.58,29.58,0,0,1,3.63,4.19A6.3,6.3,0,0,1,40,32.05c.31.86-.12,1.44-1,1.48H35.36A1.87,1.87,0,0,1,34,33c-.46-.44-.9-.9-1.33-1.37a22.1,22.1,0,0,0-3-2.88A12.35,12.35,0,0,0,28.43,28a1.71,1.71,0,0,0-1-.18.63.63,0,0,0-.67.62,4.63,4.63,0,0,0,0,.65c0,.94,0,1.87,0,2.8,0,1.14-.32,1.47-1.45,1.58a10.57,10.57,0,0,1-5.43-.92,15.15,15.15,0,0,1-6-4.92,39,39,0,0,1-5-8.84,14.27,14.27,0,0,1-.89-3,1.84,1.84,0,0,1,0-.33.84.84,0,0,1,.82-1,2.71,2.71,0,0,1,.4,0h3.51a1.35,1.35,0,0,1,1.4.93c.35.87.66,1.76,1,2.62a25.13,25.13,0,0,0,3.21,5.72,9.36,9.36,0,0,0,1,1.08,1.55,1.55,0,0,0,.53.34.54.54,0,0,0,.8-.42,3.07,3.07,0,0,0,.08-.67c0-1.78,0-3.55,0-5.32a3.88,3.88,0,0,0-.93-2.58,2.88,2.88,0,0,1-.3-.39A.8.8,0,0,1,20,14.49a1.51,1.51,0,0,1,.3,0h5.32a2.31,2.31,0,0,1,.37,0,.73.73,0,0,1,.67.63,3.31,3.31,0,0,1,.06.7C26.72,16.94,26.72,18,26.72,19.15Z"/></svg>