<svg id="Слой_1" data-name="Слой 1" xmlns="http://www.w3.org/2000/svg" viewBox="0 0 48 48"><defs><style>.cls-1,.cls-2{fill:#070b47;}.cls-2{fill-rule:evenodd;}</style></defs><title>whatsap</title><path class="cls-1" d="M40,47.94H8A7.92,7.92,0,0,1,.06,40V8A7.92,7.92,0,0,1,8,.06H40A7.92,7.92,0,0,1,47.94,8V40A7.92,7.92,0,0,1,40,47.94ZM8,4.23A3.75,3.75,0,0,0,4.23,8V40A3.75,3.75,0,0,0,8,43.77H40A3.75,3.75,0,0,0,43.77,40V8A3.75,3.75,0,0,0,40,4.23Z"/><path class="cls-2" d="M31,26.88c-.36-.19-2.13-1.15-2.46-1.28s-.58-.21-.84.15a18,18,0,0,1-1.21,1.39c-.22.24-.44.26-.8.06a9.75,9.75,0,0,1-2.87-1.93,10.79,10.79,0,0,1-1.95-2.61c-.2-.37,0-.57.19-.74s.38-.42.58-.62a2.53,2.53,0,0,0,.38-.6.66.66,0,0,0,0-.64c-.09-.19-.75-2-1-2.76s-.59-.64-.8-.65-.46,0-.7,0a1.32,1.32,0,0,0-1,.42,4.06,4.06,0,0,0-1.39,3,7.13,7.13,0,0,0,1.35,3.84c.17.25,2.38,4.16,6.05,5.77s3.69,1.12,4.36,1.08a3.71,3.71,0,0,0,2.54-1.65,3,3,0,0,0,.28-1.73c-.08-.16-.32-.26-.68-.46Zm-6.74,8.69a11.88,11.88,0,0,1-6.57-2L13.1,35.07l1.49-4.44a12,12,0,1,1,9.67,4.94Zm0-26.3A14.35,14.35,0,0,0,12,31l-2.59,7.7,7.95-2.54A14.35,14.35,0,1,0,24.26,9.27Z"/></svg>