<svg id="Слой_1" data-name="Слой 1" xmlns="http://www.w3.org/2000/svg" viewBox="0 0 48 48"><defs><style>.cls-1,.cls-2{fill:#070b47;}.cls-2{fill-rule:evenodd;}</style></defs><title>youtube</title><path class="cls-1" d="M40,47.94H8A7.92,7.92,0,0,1,.06,40V8A7.92,7.92,0,0,1,8,.06H40A7.92,7.92,0,0,1,47.94,8V40A7.92,7.92,0,0,1,40,47.94ZM8,4.23A3.75,3.75,0,0,0,4.23,8V40A3.75,3.75,0,0,0,8,43.77H40A3.75,3.75,0,0,0,43.77,40V8A3.75,3.75,0,0,0,40,4.23Z"/><path class="cls-2" d="M37.87,18.44a4.14,4.14,0,0,0-4.14-4.15H14.27a4.14,4.14,0,0,0-4.14,4.15V29.56a4.14,4.14,0,0,0,4.14,4.15H33.73a4.14,4.14,0,0,0,4.14-4.15ZM21.23,28.69V18.25l7.92,5.22Zm0,0"/></svg>